# AST/ASF file generated using VICON BodyLanguage
# -----------------------------------------------
:version 1.10
:name VICON
:units
  mass 1.0
  length 0.45
  angle deg
:documentation
   .ast/.asf automatically generated from VICON data using
   VICON BodyBuilder and BodyLanguage model FoxedUp or BRILLIANT.MOD
:root
   order TX TY TZ RX RY RZ
   axis XYZ
   position 0 0 0  
   orientation 0 0 0 
:bonedata
  begin
     id 1 
     name lhipjoint
     direction 0.576517 -0.752066 0.319413 
     length 2.45433 
     axis 0 0 0  XYZ
  end
  begin
     id 2 
     name lfemur
     direction 0.34202 -0.939693 0  
     length 7.54459  
     axis 0 0 20  XYZ
    dof rx ry rz
    limits (-160.0 20.0)
           (-70.0 70.0)
           (-60.0 70.0)
  end
  begin
     id 3 
     name ltibia
     direction 0.34202 -0.939693 0   
     length 7.73986   
     axis 0 0 20   XYZ
    dof rx
    limits (-10.0 170.0)
  end
  begin
     id 4 
     name lfoot
     direction 0.090693 -0.249177 0.964202   
     length 2.28437   
     axis -90 7.62852e-016 20   XYZ
    dof rx rz
    limits (-45.0 90.0)
           (-70.0 20.0)
  end
  begin
     id 5 
     name ltoes
     direction 1.5356e-011 -4.21928e-011 1   
     length 1.14243   
     axis -90 7.62852e-016 20   XYZ
    dof rx
    limits (-90.0 20.0)
  end
  begin
     id 6 
     name rhipjoint
     direction -0.573937 -0.753736 0.320122   
     length 2.44889  
     axis 0 0 0  XYZ 
  end
  begin
     id 7 
     name rfemur
     direction -0.34202 -0.939693 0   
     length 7.50166   
     axis 0 0 -20   XYZ
    dof rx ry rz
    limits (-160.0 20.0)
           (-70.0 70.0)
           (-70.0 60.0)
  end
  begin
     id 8 
     name rtibia
     direction -0.34202 -0.939693 0   
     length 7.54266   
     axis 0 0 -20   XYZ
    dof rx
    limits (-10.0 170.0)
 end
 begin
     id 9 
     name rfoot
     direction -0.114017 -0.31326 0.942798   
     length 2.34212  
     axis -90 -7.62852e-016 -20   XYZ
    dof rx rz
    limits (-45.0 90.0)
           (-20.0 70.0)
  end
  begin
     id 10 
     name rtoes
     direction -1.53557e-011 -4.21867e-011 1   
     length 1.16246   
     axis -90 -7.62852e-016 -20   XYZ
    dof rx
    limits (-90.0 20.0)
  end
  begin
     id 11 
     name lowerback
     direction -0.0228371 0.999155 -0.034167   
     length 2.0537   
     axis 0 0 0   XYZ
    dof rx ry rz
    limits (-20.0 45.0)
           (-30.0 30.0)
           (-30.0 30.0)
  end
  begin
     id 12 
     name upperback
     direction 0.0198981 0.999794 0.00389455   
     length 2.05302   
     axis 0 0 0   XYZ
    dof rx ry rz
    limits (-20.0 45.0)
           (-30.0 30.0)
           (-30.0 30.0)
  end
  begin
     id 13 
     name thorax
     direction 0.0304566 0.99935 0.0192987   
     length 2.05315   
     axis 0 0 0   XYZ
    dof rx ry rz
    limits (-20.0 45.0)
           (-30.0 30.0)
           (-30.0 30.0)
  end
  begin
     id 14 
     name lowerneck
     direction -0.0196762 0.99417 0.106017   
     length 1.82056   
     axis 0 0 0   XYZ
    dof rx ry rz
    limits (-20.0 45.0)
           (-30.0 30.0)
           (-30.0 30.0)
  end
  begin
     id 15 
     name upperneck
     direction 0.00517787 0.9802 -0.197944   
     length 1.83835   
     axis 0 0 0   XYZ
    dof rx ry rz
    limits (-20.0 45.0)
           (-30.0 30.0)
           (-30.0 30.0)
  end
  begin
     id 16
     name head
     direction 0.00211419 0.996945 -0.078081  
     length 1.85629  
     axis 0 0 0   XYZ
    dof rx ry rz
    limits (-20.0 45.0)
           (-30.0 30.0)
           (-30.0 30.0)
  end
  begin
     id 17 
     name lclavicle
     direction 0.930001 0.365811 -0.0357824  
     length 3.81961  
     axis 0 0 0   XYZ
    dof ry rz
    limits (-20.0 10.0)
           (0.0 20.0)
  end
  begin
     id 18 
     name lhumerus
     direction 1 -4.48968e-011 -3.06644e-027   
     length 5.14507   
     axis 180 -30 -90   XYZ
    dof rx ry rz
    limits (-60.0 90.0)
           (-90.0 90.0)
           (-90.0 90.0)
  end
  begin
     id 19
     name lradius
     direction 1 -4.48965e-011 9.06925e-028   
     length 3.50646   
     axis 180 -30 -90   XYZ
    dof rx
    limits (-10.0 170.0)
  end
  begin
     id 20
     name lwrist
     direction 1 -4.48957e-011 1.03922e-027   
     length 1.75323   
     axis -2.56395e-016 90 90   XYZ
    dof ry
    limits (-180.0 0.0)
 end
  begin
     id 21 
     name lhand
     direction 1 -4.48967e-011 2.08017e-027   
     length 0.629969   
     axis -1.32723e-015 90 90   XYZ
    dof rx rz
    limits (-90.0 90.0)
           (-45.0 45.0)
  end
  begin
     id 22 
     name lfingers
     direction 1 -4.49089e-011 4.20095e-027   
     length 0.507897   
     axis -2.6545e-015 90 90   XYZ
    dof rx
    limits (0.0 90.0)
  end
  begin
     id 23
     name lthumb
     direction 0.707107 -6.35001e-011 0.707107   
     length 0.729241   
     axis -90 45 5.05613e-014   XYZ
    dof rx rz
    limits (-45.0 45.0)
           (-45.0 45.0)
  end
  begin
     id 24 
     name rclavicle
     direction -0.881882 0.464123 -0.0829113   
     length 3.47515  
     axis 0 0 0   XYZ 
    dof ry rz
    limits (-10.0 20.0)
           (-20.0 0.0)
  end
  begin
     id 25 
     name rhumerus
     direction -1 -4.48961e-011 -1.55672e-027  
     length 5.232   
     axis 180 30 90   XYZ
    dof rx ry rz
    limits (-90.0 60.0)
           (-90.0 90.0)
           (-90.0 90.0)
  end
  begin
     id 26 
     name rradius
     direction -1 -4.48963e-011 6.18178e-029   
     length 3.65641   
     axis 180 30 90   XYZ
    dof rx
    limits (-10.0 170.0)
  end
  begin
     id 27 
     name rwrist
     direction -1 -4.48982e-011 1.04136e-027   
     length 1.8282   
     axis -2.56395e-016 -90 -90   XYZ
    dof ry
    limits (-180.0 0.0)
  end
  begin
     id 28
     name rhand
     direction -1 -4.48929e-011 2.07378e-027   
     length 0.656807   
     axis -1.32723e-015 -90 -90   XYZ
    dof rx rz
    limits (-90.0 90.0)
           (-45.0 45.0)
  end
  begin
     id 29
     name rfingers
     direction -1 -4.489e-011 4.13816e-027   
     length 0.529535   
     axis -2.6545e-015 -90 -90   XYZ
    dof rx
    limits (0.0 90.0)
  end
  begin
     id 30
     name rthumb
     direction -0.707107 -6.34843e-011 0.707107   
     length 0.760309   
     axis -90 -45 -5.05613e-014   XYZ
    dof rx rz
    limits (-45.0 45.0)
           (-45.0 45.0)
  end
:hierarchy
  begin
    root lhipjoint rhipjoint lowerback
    lhipjoint lfemur
    lfemur ltibia
    ltibia lfoot
    lfoot ltoes
    rhipjoint rfemur
    rfemur rtibia
    rtibia rfoot
    rfoot rtoes
    lowerback upperback
    upperback thorax
    thorax lowerneck lclavicle rclavicle
    lowerneck upperneck
    upperneck head
    lclavicle lhumerus
    lhumerus lradius
    lradius lwrist
    lwrist lhand lthumb
    lhand lfingers
    rclavicle rhumerus
    rhumerus rradius
    rradius rwrist
    rwrist rhand rthumb
    rhand rfingers
  end

#!OML:ASF H:\ManfredETheater\Project 1\Capture day 1\Session 1\subject.ASF
:FULLY-SPECIFIED
:DEGREES
32
root 1.07237 15.7087 -35.3833 -0.374535 -36.8909 2.31059
lowerback 16.1998 2.59941 1.05634
upperback 0.612304 3.72383 1.28022
thorax -8.45276 1.76667 -0.0838529
lowerneck -3.0168 -2.30491 12.1801
upperneck 1.45108 -34.736 -2.63353
head 5.6739 -155.279 197.022
rclavicle -4.72114e-014 2.3059e-014
rhumerus -45.8448 9.27395 -84.3699
rradius 84.6707
rwrist 3.25705
rhand -21.8021 0.914466
rfingers 7.12502
rthumb 4.59985 -29.0156
lclavicle -4.72114e-014 2.3059e-014
lhumerus -45.1389 0.340326 88.73
lradius 70.9173
lwrist -4.87525
lhand -27.0044 -17.6933
lfingers 7.12502
lthumb -0.424369 12.286
rfemur -31.5225 -8.39296 16.7372
rtibia 75.4314
rfoot -32.6084 -9.26982
rtoes -29.2806
lfemur -42.6407 -2.27981 5.89626
ltibia 47.1372
lfoot -6.42979 1.65055
ltoes -21.2416
33
root 1.13484 15.7259 -35.0612 -0.741364 -38.6608 2.7834
lowerback 16.0211 2.86714 1.08635
upperback 0.637521 4.06696 1.13603
thorax -8.31106 1.92973 -0.323727
lowerneck -2.5838 -2.09446 12.0144
upperneck 1.53251 -34.5244 -2.72084
head 5.71301 -155.458 196.957
rclavicle -4.07509e-015 -9.54166e-015
rhumerus -45.3391 9.66161 -84.8561
rradius 85.9646
rwrist 2.80334
rhand -21.6704 0.956874
rfingers 7.12502
rthumb 4.72701 -28.9704
lclavicle -4.07509e-015 -9.54166e-015
lhumerus -45.6994 1.89075 88.2268
lradius 70.8754
lwrist -4.78568
lhand -27.3541 -17.3125
lfingers 7.12502
lthumb -0.762117 12.6659
rfemur -30.7615 -8.17469 15.1271
rtibia 75.2478
rfoot -32.7392 -8.06491
rtoes -30.5087
lfemur -40.7916 -4.11282 7.37853
ltibia 42.6618
lfoot -4.0383 2.19675
ltoes -23.4563
34
root 1.19953 15.7362 -34.7348 -1.17952 -40.4437 3.28362
lowerback 15.878 3.11209 1.1293
upperback 0.674425 4.3841 1.01006
thorax -8.17508 2.08044 -0.544494
lowerneck -2.13015 -1.86471 11.8417
upperneck 1.62161 -34.3096 -2.81267
head 5.7434 -155.663 196.897
rclavicle 2.77305e-014 1.59028e-015
rhumerus -44.8475 10.0715 -85.2985
rradius 87.1864
rwrist 2.39628
rhand -21.5378 0.927531
rfingers 7.12502
rthumb 4.8551 -28.9968
lclavicle 2.77305e-014 1.59028e-015
lhumerus -46.296 3.45541 87.7412
lradius 70.8021
lwrist -4.69194
lhand -27.8588 -16.9175
lfingers 7.12502
lthumb -1.24954 13.0586
rfemur -30.0335 -7.88903 13.4341
rtibia 75.0629
rfoot -32.8422 -6.74835
rtoes -31.7008
lfemur -39.0175 -5.93349 8.6769
ltibia 38.8907
lfoot -1.53 2.72175
ltoes -25.2544
35
root 1.26667 15.7411 -34.4057 -1.70014 -42.233 3.82682
lowerback 15.7876 3.33354 1.17053
upperback 0.720344 4.67193 0.903548
thorax -8.05905 2.21739 -0.737842
lowerneck -1.65618 -1.61364 11.6593
upperneck 1.71593 -34.0798 -2.90758
head 5.76568 -155.876 196.839
rclavicle 6.05299e-014 8.74653e-015
rhumerus -44.3869 10.5226 -85.6932
rradius 88.3596
rwrist 2.04141
rhand -21.4359 0.859438
rfingers 7.12502
rthumb 4.95349 -29.0627
lclavicle 6.05299e-014 8.74653e-015
lhumerus -46.9272 5.00335 87.2824
lradius 70.715
lwrist -4.51645
lhand -28.4536 -16.5004
lfingers 7.12502
lthumb -1.82401 13.4716
rfemur -29.3502 -7.50729 11.6595
rtibia 74.8731
rfoot -32.896 -5.32526
rtoes -32.8483
lfemur -37.3613 -7.63957 9.68767
ltibia 35.9512
lfoot 0.875778 3.16832
ltoes -26.3959
36
root 1.33713 15.7402 -34.0747 -2.31753 -44.0106 4.43304
lowerback 15.7771 3.52958 1.19416
upperback 0.766151 4.92599 0.820061
thorax -7.99037 2.33831 -0.893351
lowerneck -1.16039 -1.34111 11.4592
upperneck 1.8158 -33.8326 -3.00749
head 5.77909 -156.087 196.779
rclavicle 2.5842e-015 -2.78299e-014
rhumerus -43.9783 11.0225 -86.0205
rradius 89.5023
rwrist 1.78219
rhand -21.346 0.776814
rfingers 7.12502
rthumb 5.04025 -29.1432
lclavicle 2.5842e-015 -2.78299e-014
lhumerus -47.5981 6.50141 86.8684
lradius 70.6299
lwrist -4.20392
lhand -29.1047 -16.0378
lfingers 7.12502
lthumb -2.45284 13.9278
rfemur -28.7286 -7.02298 9.7989
rtibia 74.6873
rfoot -32.8765 -3.81247
rtoes -33.9703
lfemur -35.8582 -8.89707 10.2347
ltibia 33.919
lfoot 3.12679 3.32779
ltoes -25.9094
37
root 1.4117 15.7339 -33.7431 -3.04018 -45.7593 5.12345
lowerback 15.8484 3.70108 1.20983
upperback 0.821047 5.14693 0.738407
thorax -7.95776 2.44268 -1.03999
lowerneck -0.675978 -1.05022 11.2654
upperneck 1.90838 -33.542 -3.09411
head 5.77288 -156.251 196.71
rclavicle -7.59357e-014 1.19271e-014
rhumerus -43.6013 11.5394 -86.2881
rradius 90.6268
rwrist 1.62325
rhand -21.3004 0.696535
rfingers 7.12502
rthumb 5.0843 -29.2225
lclavicle -7.59357e-014 1.19271e-014
lhumerus -48.2561 7.88282 86.4933
lradius 70.5558
lwrist -3.66918
lhand -29.7296 -15.5211
lfingers 7.12502
lthumb -3.05634 14.4368
rfemur -28.1978 -6.4349 7.85515
rtibia 74.5207
rfoot -32.7538 -2.23348
rtoes -35.0671
lfemur -34.5178 -9.47481 10.2172
ltibia 32.8039
lfoot 4.52796 3.35693
ltoes -25.7021
